<mxfile host="app.diagrams.net" agent="Mozilla/5.0 (Windows NT 10.0; Win64; x64) AppleWebKit/537.36 (KHTML, like Gecko) Chrome/136.0.0.0 Safari/537.36 Edg/136.0.0.0" version="27.1.4">
  <diagram name="Page-1" id="vDvX537qE1jJ2asdmaQr">
    <mxGraphModel dx="1237" dy="706" grid="1" gridSize="10" guides="1" tooltips="1" connect="1" arrows="1" fold="1" page="1" pageScale="1" pageWidth="850" pageHeight="1100" math="0" shadow="0">
      <root>
        <mxCell id="0" />
        <mxCell id="1" parent="0" />
        <mxCell id="vqRgpmQtG1kNpMCvvZJh-1" value="&lt;h1 style=&quot;line-height: 150%; padding-top: 0px; padding-bottom: 100px;&quot;&gt;&lt;div style=&quot;color: #000000;background-color: #fffffe;font-family: Consolas, &#39;Courier New&#39;, monospace;font-weight: normal;font-size: 14px;line-height: 19px;white-space: pre;&quot;&gt;&lt;span style=&quot;color: #888c89;&quot;&gt;Presentation Layer&lt;/span&gt;&lt;/div&gt;&lt;/h1&gt;&lt;div style=&quot;line-height: 150%;&quot;&gt;&lt;div&gt;&lt;/div&gt;&lt;/div&gt;" style="shape=folder;fontStyle=1;spacingTop=11;tabWidth=160;tabHeight=40;tabPosition=left;html=1;whiteSpace=wrap;align=left;fontSize=12;spacing=6;spacingRight=0;spacingLeft=2;spacingBottom=-7;" parent="1" vertex="1">
          <mxGeometry x="40" y="80" width="680" height="110" as="geometry" />
        </mxCell>
        <mxCell id="vqRgpmQtG1kNpMCvvZJh-3" value="&lt;div style=&quot;color: rgb(0, 0, 0); background-color: rgb(255, 255, 254); font-family: Consolas, &amp;quot;Courier New&amp;quot;, monospace; font-size: 14px; line-height: 19px; white-space: pre;&quot;&gt;&lt;span style=&quot;color: #aa8500;&quot;&gt;API Services&lt;/span&gt;&lt;/div&gt;" style="html=1;dropTarget=0;whiteSpace=wrap;" parent="1" vertex="1">
          <mxGeometry x="150" y="130" width="110" height="40" as="geometry" />
        </mxCell>
        <mxCell id="vqRgpmQtG1kNpMCvvZJh-5" value="&lt;div style=&quot;color: rgb(0, 0, 0); background-color: rgb(255, 255, 254); font-family: Consolas, &amp;quot;Courier New&amp;quot;, monospace; font-size: 14px; line-height: 19px; white-space: pre;&quot;&gt;&lt;div style=&quot;color: rgb(0, 0, 0); background-color: rgb(255, 255, 254); line-height: 19px;&quot;&gt;&lt;span style=&quot;color: #aa8500;&quot;&gt;Authentication Service&lt;/span&gt;&lt;/div&gt;&lt;/div&gt;" style="html=1;dropTarget=0;whiteSpace=wrap;" parent="1" vertex="1">
          <mxGeometry x="280" y="130" width="190" height="40" as="geometry" />
        </mxCell>
        <mxCell id="vqRgpmQtG1kNpMCvvZJh-6" value="&lt;div style=&quot;color: rgb(0, 0, 0); background-color: rgb(255, 255, 254); font-family: Consolas, &amp;quot;Courier New&amp;quot;, monospace; font-size: 14px; line-height: 19px; white-space: pre;&quot;&gt;&lt;div style=&quot;color: rgb(0, 0, 0); background-color: rgb(255, 255, 254); line-height: 19px;&quot;&gt;&lt;span style=&quot;color: #aa8500;&quot;&gt;Validation Service&lt;/span&gt;&lt;/div&gt;&lt;/div&gt;" style="html=1;dropTarget=0;whiteSpace=wrap;" parent="1" vertex="1">
          <mxGeometry x="500" y="130" width="150" height="40" as="geometry" />
        </mxCell>
        <mxCell id="vqRgpmQtG1kNpMCvvZJh-8" value="&#xa;&lt;div style=&quot;color: #000000;background-color: #fffffe;font-family: Consolas, &#39;Courier New&#39;, monospace;font-weight: normal;font-size: 14px;line-height: 19px;white-space: pre;&quot;&gt;&lt;div&gt;&lt;span style=&quot;color: #888c89;&quot;&gt;Business Logic Layer&lt;/span&gt;&lt;/div&gt;&lt;/div&gt;&#xa;&#xa;" style="shape=folder;fontStyle=1;spacingTop=11;tabWidth=160;tabHeight=40;tabPosition=left;html=1;whiteSpace=wrap;align=left;fontSize=12;spacing=6;spacingRight=0;spacingLeft=2;spacingBottom=238;" parent="1" vertex="1">
          <mxGeometry x="40" y="240" width="680" height="270" as="geometry" />
        </mxCell>
        <mxCell id="vqRgpmQtG1kNpMCvvZJh-14" value="&lt;div style=&quot;color: rgb(0, 0, 0); background-color: rgb(255, 255, 254); font-family: Consolas, &amp;quot;Courier New&amp;quot;, monospace; font-size: 14px; line-height: 19px; white-space: pre;&quot;&gt;&lt;div style=&quot;color: rgb(0, 0, 0); background-color: rgb(255, 255, 254); line-height: 19px;&quot;&gt;&lt;span style=&quot;color: #aa8500;&quot;&gt;HBnB Facade&lt;/span&gt;&lt;/div&gt;&lt;/div&gt;" style="html=1;dropTarget=0;whiteSpace=wrap;" parent="1" vertex="1">
          <mxGeometry x="350" y="300" width="110" height="40" as="geometry" />
        </mxCell>
        <mxCell id="vqRgpmQtG1kNpMCvvZJh-16" value="&lt;div style=&quot;color: rgb(0, 0, 0); background-color: rgb(255, 255, 254); font-family: Consolas, &amp;quot;Courier New&amp;quot;, monospace; font-size: 14px; line-height: 19px; white-space: pre;&quot;&gt;&lt;div style=&quot;color: rgb(0, 0, 0); background-color: rgb(255, 255, 254); line-height: 19px;&quot;&gt;&lt;span style=&quot;color: #aa8500;&quot;&gt;User Model&lt;/span&gt;&lt;/div&gt;&lt;/div&gt;" style="html=1;dropTarget=0;whiteSpace=wrap;" parent="1" vertex="1">
          <mxGeometry x="110" y="410" width="110" height="40" as="geometry" />
        </mxCell>
        <mxCell id="vqRgpmQtG1kNpMCvvZJh-18" value="&lt;div style=&quot;color: rgb(0, 0, 0); background-color: rgb(255, 255, 254); font-family: Consolas, &amp;quot;Courier New&amp;quot;, monospace; font-size: 14px; line-height: 19px; white-space: pre;&quot;&gt;&lt;div style=&quot;color: rgb(0, 0, 0); background-color: rgb(255, 255, 254); line-height: 19px;&quot;&gt;&lt;span style=&quot;color: #aa8500;&quot;&gt;Place Model&lt;/span&gt;&lt;/div&gt;&lt;/div&gt;" style="html=1;dropTarget=0;whiteSpace=wrap;" parent="1" vertex="1">
          <mxGeometry x="270" y="410" width="110" height="40" as="geometry" />
        </mxCell>
        <mxCell id="vqRgpmQtG1kNpMCvvZJh-19" value="&lt;div style=&quot;color: rgb(0, 0, 0); background-color: rgb(255, 255, 254); font-family: Consolas, &amp;quot;Courier New&amp;quot;, monospace; font-size: 14px; line-height: 19px; white-space: pre;&quot;&gt;&lt;div style=&quot;color: rgb(0, 0, 0); background-color: rgb(255, 255, 254); line-height: 19px;&quot;&gt;&lt;div style=&quot;color: rgb(0, 0, 0); background-color: rgb(255, 255, 254); line-height: 19px;&quot;&gt;&lt;span style=&quot;color: #aa8500;&quot;&gt;Review Model&lt;/span&gt;&lt;/div&gt;&lt;/div&gt;&lt;/div&gt;" style="html=1;dropTarget=0;whiteSpace=wrap;" parent="1" vertex="1">
          <mxGeometry x="410" y="410" width="110" height="40" as="geometry" />
        </mxCell>
        <mxCell id="vqRgpmQtG1kNpMCvvZJh-20" value="&lt;div style=&quot;color: rgb(0, 0, 0); background-color: rgb(255, 255, 254); font-family: Consolas, &amp;quot;Courier New&amp;quot;, monospace; font-size: 14px; line-height: 19px; white-space: pre;&quot;&gt;&lt;div style=&quot;color: rgb(0, 0, 0); background-color: rgb(255, 255, 254); line-height: 19px;&quot;&gt;&lt;div style=&quot;color: rgb(0, 0, 0); background-color: rgb(255, 255, 254); line-height: 19px;&quot;&gt;&lt;div style=&quot;color: rgb(0, 0, 0); background-color: rgb(255, 255, 254); line-height: 19px;&quot;&gt;&lt;span style=&quot;color: #aa8500;&quot;&gt;Amenity Model&lt;/span&gt;&lt;/div&gt;&lt;/div&gt;&lt;/div&gt;&lt;/div&gt;" style="html=1;dropTarget=0;whiteSpace=wrap;" parent="1" vertex="1">
          <mxGeometry x="570" y="410" width="110" height="40" as="geometry" />
        </mxCell>
        <mxCell id="vqRgpmQtG1kNpMCvvZJh-28" value="" style="endArrow=open;endFill=1;endSize=12;html=1;rounded=0;" parent="1" target="vqRgpmQtG1kNpMCvvZJh-14" edge="1">
          <mxGeometry width="160" relative="1" as="geometry">
            <mxPoint x="520" y="170" as="sourcePoint" />
            <mxPoint x="510" y="350" as="targetPoint" />
          </mxGeometry>
        </mxCell>
        <mxCell id="vqRgpmQtG1kNpMCvvZJh-29" value="" style="endArrow=open;endFill=1;endSize=12;html=1;rounded=0;entryX=0.5;entryY=0;entryDx=0;entryDy=0;" parent="1" source="vqRgpmQtG1kNpMCvvZJh-5" target="vqRgpmQtG1kNpMCvvZJh-14" edge="1">
          <mxGeometry width="160" relative="1" as="geometry">
            <mxPoint x="440" y="220" as="sourcePoint" />
            <mxPoint x="340" y="350" as="targetPoint" />
          </mxGeometry>
        </mxCell>
        <mxCell id="vqRgpmQtG1kNpMCvvZJh-31" value="" style="endArrow=open;endFill=1;endSize=12;html=1;rounded=0;exitX=0.75;exitY=1;exitDx=0;exitDy=0;" parent="1" source="vqRgpmQtG1kNpMCvvZJh-3" target="vqRgpmQtG1kNpMCvvZJh-14" edge="1">
          <mxGeometry width="160" relative="1" as="geometry">
            <mxPoint x="270" y="230" as="sourcePoint" />
            <mxPoint x="296" y="360" as="targetPoint" />
          </mxGeometry>
        </mxCell>
        <mxCell id="vqRgpmQtG1kNpMCvvZJh-32" value="" style="endArrow=open;endFill=1;endSize=12;html=1;rounded=0;exitX=1;exitY=1;exitDx=0;exitDy=0;" parent="1" source="vqRgpmQtG1kNpMCvvZJh-14" edge="1">
          <mxGeometry width="160" relative="1" as="geometry">
            <mxPoint x="610" y="350" as="sourcePoint" />
            <mxPoint x="610" y="400" as="targetPoint" />
          </mxGeometry>
        </mxCell>
        <mxCell id="vqRgpmQtG1kNpMCvvZJh-33" value="" style="endArrow=open;endFill=1;endSize=12;html=1;rounded=0;exitX=0.75;exitY=1;exitDx=0;exitDy=0;entryX=0.5;entryY=0;entryDx=0;entryDy=0;" parent="1" source="vqRgpmQtG1kNpMCvvZJh-14" target="vqRgpmQtG1kNpMCvvZJh-19" edge="1">
          <mxGeometry width="160" relative="1" as="geometry">
            <mxPoint x="410" y="360" as="sourcePoint" />
            <mxPoint x="560" y="420" as="targetPoint" />
          </mxGeometry>
        </mxCell>
        <mxCell id="vqRgpmQtG1kNpMCvvZJh-34" value="" style="endArrow=open;endFill=1;endSize=12;html=1;rounded=0;entryX=0.823;entryY=-0.087;entryDx=0;entryDy=0;entryPerimeter=0;" parent="1" target="vqRgpmQtG1kNpMCvvZJh-16" edge="1">
          <mxGeometry width="160" relative="1" as="geometry">
            <mxPoint x="350" y="340" as="sourcePoint" />
            <mxPoint x="422" y="440" as="targetPoint" />
          </mxGeometry>
        </mxCell>
        <mxCell id="vqRgpmQtG1kNpMCvvZJh-35" value="" style="endArrow=open;endFill=1;endSize=12;html=1;rounded=0;exitX=0.5;exitY=1;exitDx=0;exitDy=0;entryX=0.5;entryY=0;entryDx=0;entryDy=0;" parent="1" source="vqRgpmQtG1kNpMCvvZJh-14" target="vqRgpmQtG1kNpMCvvZJh-18" edge="1">
          <mxGeometry width="160" relative="1" as="geometry">
            <mxPoint x="390" y="370" as="sourcePoint" />
            <mxPoint x="422" y="440" as="targetPoint" />
          </mxGeometry>
        </mxCell>
        <mxCell id="vqRgpmQtG1kNpMCvvZJh-36" value="&lt;div style=&quot;color: #000000;background-color: #fffffe;font-family: Consolas, &#39;Courier New&#39;, monospace;font-weight: normal;font-size: 14px;line-height: 19px;white-space: pre;&quot;&gt;&lt;span style=&quot;color: #888c89;&quot;&gt;Persistence Layer&lt;/span&gt;&lt;/div&gt;" style="shape=folder;fontStyle=1;spacingTop=11;tabWidth=160;tabHeight=40;tabPosition=left;html=1;whiteSpace=wrap;align=left;fontSize=12;spacing=6;spacingRight=0;spacingLeft=2;spacingBottom=238;" parent="1" vertex="1">
          <mxGeometry x="40" y="600" width="680" height="270" as="geometry" />
        </mxCell>
        <mxCell id="vqRgpmQtG1kNpMCvvZJh-41" value="&lt;div style=&quot;color: rgb(0, 0, 0); background-color: rgb(255, 255, 254); font-family: Consolas, &amp;quot;Courier New&amp;quot;, monospace; font-size: 14px; line-height: 19px; white-space: pre;&quot;&gt;&lt;div style=&quot;color: rgb(0, 0, 0); background-color: rgb(255, 255, 254); line-height: 19px;&quot;&gt;&lt;div style=&quot;color: rgb(0, 0, 0); background-color: rgb(255, 255, 254); line-height: 19px;&quot;&gt;&lt;div style=&quot;color: rgb(0, 0, 0); background-color: rgb(255, 255, 254); line-height: 19px;&quot;&gt;&lt;span style=&quot;color: #aa8500;&quot;&gt;Amenity Repository&lt;/span&gt;&lt;/div&gt;&lt;/div&gt;&lt;/div&gt;&lt;/div&gt;" style="html=1;dropTarget=0;whiteSpace=wrap;" parent="1" vertex="1">
          <mxGeometry x="550" y="680" width="150" height="40" as="geometry" />
        </mxCell>
        <mxCell id="vqRgpmQtG1kNpMCvvZJh-42" value="&lt;div style=&quot;color: rgb(0, 0, 0); background-color: rgb(255, 255, 254); font-family: Consolas, &amp;quot;Courier New&amp;quot;, monospace; font-size: 14px; line-height: 19px; white-space: pre;&quot;&gt;&lt;div style=&quot;color: rgb(0, 0, 0); background-color: rgb(255, 255, 254); line-height: 19px;&quot;&gt;&lt;div style=&quot;color: rgb(0, 0, 0); background-color: rgb(255, 255, 254); line-height: 19px;&quot;&gt;&lt;div style=&quot;color: rgb(0, 0, 0); background-color: rgb(255, 255, 254); line-height: 19px;&quot;&gt;&lt;div style=&quot;color: rgb(0, 0, 0); background-color: rgb(255, 255, 254); line-height: 19px;&quot;&gt;&lt;span style=&quot;color: #aa8500;&quot;&gt;Review Repository&lt;/span&gt;&lt;/div&gt;&lt;/div&gt;&lt;/div&gt;&lt;/div&gt;&lt;/div&gt;" style="html=1;dropTarget=0;whiteSpace=wrap;" parent="1" vertex="1">
          <mxGeometry x="395" y="680" width="140" height="40" as="geometry" />
        </mxCell>
        <mxCell id="vqRgpmQtG1kNpMCvvZJh-43" value="&lt;div style=&quot;color: rgb(0, 0, 0); background-color: rgb(255, 255, 254); font-family: Consolas, &amp;quot;Courier New&amp;quot;, monospace; font-size: 14px; line-height: 19px; white-space: pre;&quot;&gt;&lt;div style=&quot;color: rgb(0, 0, 0); background-color: rgb(255, 255, 254); line-height: 19px;&quot;&gt;&lt;div style=&quot;color: rgb(0, 0, 0); background-color: rgb(255, 255, 254); line-height: 19px;&quot;&gt;&lt;div style=&quot;color: rgb(0, 0, 0); background-color: rgb(255, 255, 254); line-height: 19px;&quot;&gt;&lt;div style=&quot;color: rgb(0, 0, 0); background-color: rgb(255, 255, 254); line-height: 19px;&quot;&gt;&lt;div style=&quot;color: rgb(0, 0, 0); background-color: rgb(255, 255, 254); line-height: 19px;&quot;&gt;&lt;span style=&quot;color: #aa8500;&quot;&gt;Place Repository&lt;/span&gt;&lt;/div&gt;&lt;/div&gt;&lt;/div&gt;&lt;/div&gt;&lt;/div&gt;&lt;/div&gt;" style="html=1;dropTarget=0;whiteSpace=wrap;" parent="1" vertex="1">
          <mxGeometry x="240" y="680" width="140" height="40" as="geometry" />
        </mxCell>
        <mxCell id="vqRgpmQtG1kNpMCvvZJh-44" value="&lt;div style=&quot;color: rgb(0, 0, 0); background-color: rgb(255, 255, 254); font-family: Consolas, &amp;quot;Courier New&amp;quot;, monospace; font-size: 14px; line-height: 19px; white-space: pre;&quot;&gt;&lt;span style=&quot;color: #aa8500;&quot;&gt;User Repository&lt;/span&gt;&lt;/div&gt;" style="html=1;dropTarget=0;whiteSpace=wrap;" parent="1" vertex="1">
          <mxGeometry x="80" y="680" width="140" height="40" as="geometry" />
        </mxCell>
        <mxCell id="vqRgpmQtG1kNpMCvvZJh-45" value="&lt;div style=&quot;color: rgb(0, 0, 0); background-color: rgb(255, 255, 254); font-family: Consolas, &amp;quot;Courier New&amp;quot;, monospace; font-size: 14px; line-height: 19px; white-space: pre;&quot;&gt;&lt;div style=&quot;color: rgb(0, 0, 0); background-color: rgb(255, 255, 254); line-height: 19px;&quot;&gt;&lt;div style=&quot;color: rgb(0, 0, 0); background-color: rgb(255, 255, 254); line-height: 19px;&quot;&gt;&lt;div style=&quot;color: rgb(0, 0, 0); background-color: rgb(255, 255, 254); line-height: 19px;&quot;&gt;&lt;span style=&quot;color: rgb(170, 133, 0);&quot;&gt;Database&lt;/span&gt;&lt;/div&gt;&lt;/div&gt;&lt;/div&gt;&lt;/div&gt;" style="html=1;dropTarget=0;whiteSpace=wrap;" parent="1" vertex="1">
          <mxGeometry x="300" y="810" width="150" height="40" as="geometry" />
        </mxCell>
        <mxCell id="vqRgpmQtG1kNpMCvvZJh-46" value="" style="endArrow=open;endFill=1;endSize=12;html=1;rounded=0;exitX=0.5;exitY=1;exitDx=0;exitDy=0;entryX=0.5;entryY=0;entryDx=0;entryDy=0;" parent="1" source="vqRgpmQtG1kNpMCvvZJh-20" target="vqRgpmQtG1kNpMCvvZJh-41" edge="1">
          <mxGeometry width="160" relative="1" as="geometry">
            <mxPoint x="350" y="660" as="sourcePoint" />
            <mxPoint x="510" y="660" as="targetPoint" />
          </mxGeometry>
        </mxCell>
        <mxCell id="vqRgpmQtG1kNpMCvvZJh-47" value="" style="endArrow=open;endFill=1;endSize=12;html=1;rounded=0;exitX=0.5;exitY=1;exitDx=0;exitDy=0;entryX=0.5;entryY=0;entryDx=0;entryDy=0;" parent="1" edge="1">
          <mxGeometry width="160" relative="1" as="geometry">
            <mxPoint x="460" y="450" as="sourcePoint" />
            <mxPoint x="470" y="680" as="targetPoint" />
          </mxGeometry>
        </mxCell>
        <mxCell id="vqRgpmQtG1kNpMCvvZJh-48" value="" style="endArrow=open;endFill=1;endSize=12;html=1;rounded=0;exitX=0.5;exitY=1;exitDx=0;exitDy=0;" parent="1" source="vqRgpmQtG1kNpMCvvZJh-18" target="vqRgpmQtG1kNpMCvvZJh-43" edge="1">
          <mxGeometry width="160" relative="1" as="geometry">
            <mxPoint x="460" y="570" as="sourcePoint" />
            <mxPoint x="470" y="800" as="targetPoint" />
          </mxGeometry>
        </mxCell>
        <mxCell id="vqRgpmQtG1kNpMCvvZJh-49" value="" style="endArrow=open;endFill=1;endSize=12;html=1;rounded=0;exitX=0.5;exitY=1;exitDx=0;exitDy=0;entryX=0.804;entryY=0.013;entryDx=0;entryDy=0;entryPerimeter=0;" parent="1" source="vqRgpmQtG1kNpMCvvZJh-16" target="vqRgpmQtG1kNpMCvvZJh-44" edge="1">
          <mxGeometry width="160" relative="1" as="geometry">
            <mxPoint x="254" y="520" as="sourcePoint" />
            <mxPoint x="190" y="670" as="targetPoint" />
            <Array as="points">
              <mxPoint x="230" y="580" />
            </Array>
          </mxGeometry>
        </mxCell>
        <mxCell id="vqRgpmQtG1kNpMCvvZJh-51" value="" style="endArrow=open;endFill=1;endSize=12;html=1;rounded=0;entryX=1;entryY=0;entryDx=0;entryDy=0;exitX=0.5;exitY=1;exitDx=0;exitDy=0;" parent="1" source="vqRgpmQtG1kNpMCvvZJh-41" target="vqRgpmQtG1kNpMCvvZJh-45" edge="1">
          <mxGeometry width="160" relative="1" as="geometry">
            <mxPoint x="290" y="630" as="sourcePoint" />
            <mxPoint x="450" y="630" as="targetPoint" />
          </mxGeometry>
        </mxCell>
        <mxCell id="vqRgpmQtG1kNpMCvvZJh-53" value="" style="endArrow=open;endFill=1;endSize=12;html=1;rounded=0;entryX=0.75;entryY=0;entryDx=0;entryDy=0;exitX=0.5;exitY=1;exitDx=0;exitDy=0;" parent="1" source="vqRgpmQtG1kNpMCvvZJh-42" target="vqRgpmQtG1kNpMCvvZJh-45" edge="1">
          <mxGeometry width="160" relative="1" as="geometry">
            <mxPoint x="705" y="750" as="sourcePoint" />
            <mxPoint x="530" y="840" as="targetPoint" />
          </mxGeometry>
        </mxCell>
        <mxCell id="vqRgpmQtG1kNpMCvvZJh-54" value="" style="endArrow=open;endFill=1;endSize=12;html=1;rounded=0;entryX=0.25;entryY=0;entryDx=0;entryDy=0;exitX=0.5;exitY=1;exitDx=0;exitDy=0;" parent="1" source="vqRgpmQtG1kNpMCvvZJh-43" target="vqRgpmQtG1kNpMCvvZJh-45" edge="1">
          <mxGeometry width="160" relative="1" as="geometry">
            <mxPoint x="482" y="770" as="sourcePoint" />
            <mxPoint x="430" y="860" as="targetPoint" />
          </mxGeometry>
        </mxCell>
        <mxCell id="vqRgpmQtG1kNpMCvvZJh-57" value="" style="endArrow=open;endFill=1;endSize=12;html=1;rounded=0;exitX=0.5;exitY=1;exitDx=0;exitDy=0;entryX=0;entryY=0;entryDx=0;entryDy=0;" parent="1" source="vqRgpmQtG1kNpMCvvZJh-44" target="vqRgpmQtG1kNpMCvvZJh-45" edge="1">
          <mxGeometry width="160" relative="1" as="geometry">
            <mxPoint x="350" y="770" as="sourcePoint" />
            <mxPoint x="330" y="810" as="targetPoint" />
          </mxGeometry>
        </mxCell>
      </root>
    </mxGraphModel>
  </diagram>
</mxfile>
